<mxfile host="app.diagrams.net" modified="2024-02-22T22:22:42.362Z" agent="Mozilla/5.0 (Windows NT 10.0; Win64; x64) AppleWebKit/537.36 (KHTML, like Gecko) Chrome/121.0.0.0 Safari/537.36 Edg/121.0.0.0" etag="BQO_I78zZAAQ0WrrPPn6" version="23.1.6" type="github">
  <diagram name="PÃ¡gina-1" id="0K4cjNzJpWbnlmxTv7jy">
    <mxGraphModel dx="1035" dy="606" grid="1" gridSize="10" guides="1" tooltips="1" connect="1" arrows="1" fold="1" page="1" pageScale="1" pageWidth="827" pageHeight="1169" math="0" shadow="0">
      <root>
        <mxCell id="0" />
        <mxCell id="1" parent="0" />
        <mxCell id="fn5OUpdQgfWXB9-rMtIq-5" value="Inicio" style="rounded=1;whiteSpace=wrap;html=1;" vertex="1" parent="1">
          <mxGeometry x="354" y="40" width="120" height="30" as="geometry" />
        </mxCell>
        <mxCell id="fn5OUpdQgfWXB9-rMtIq-11" value="" style="edgeStyle=orthogonalEdgeStyle;rounded=0;orthogonalLoop=1;jettySize=auto;html=1;" edge="1" parent="1" source="fn5OUpdQgfWXB9-rMtIq-6" target="fn5OUpdQgfWXB9-rMtIq-10">
          <mxGeometry relative="1" as="geometry" />
        </mxCell>
        <mxCell id="fn5OUpdQgfWXB9-rMtIq-6" value="intentos" style="shape=parallelogram;perimeter=parallelogramPerimeter;whiteSpace=wrap;html=1;fixedSize=1;" vertex="1" parent="1">
          <mxGeometry x="350" y="90" width="120" height="30" as="geometry" />
        </mxCell>
        <mxCell id="fn5OUpdQgfWXB9-rMtIq-17" value="" style="edgeStyle=orthogonalEdgeStyle;rounded=0;orthogonalLoop=1;jettySize=auto;html=1;" edge="1" parent="1" source="fn5OUpdQgfWXB9-rMtIq-10" target="fn5OUpdQgfWXB9-rMtIq-16">
          <mxGeometry relative="1" as="geometry" />
        </mxCell>
        <mxCell id="fn5OUpdQgfWXB9-rMtIq-10" value="numeroOculto" style="shape=parallelogram;perimeter=parallelogramPerimeter;whiteSpace=wrap;html=1;fixedSize=1;" vertex="1" parent="1">
          <mxGeometry x="350" y="140" width="120" height="30" as="geometry" />
        </mxCell>
        <mxCell id="fn5OUpdQgfWXB9-rMtIq-16" value="para i&amp;nbsp; = 0&lt;br&gt;hasta i &amp;lt;= 9&lt;br&gt;incremento 1" style="shape=hexagon;perimeter=hexagonPerimeter2;whiteSpace=wrap;html=1;fixedSize=1;" vertex="1" parent="1">
          <mxGeometry x="350" y="200" width="120" height="80" as="geometry" />
        </mxCell>
        <mxCell id="fn5OUpdQgfWXB9-rMtIq-22" style="edgeStyle=orthogonalEdgeStyle;rounded=0;orthogonalLoop=1;jettySize=auto;html=1;entryX=0.5;entryY=0;entryDx=0;entryDy=0;exitX=0.5;exitY=1;exitDx=0;exitDy=0;" edge="1" parent="1" source="fn5OUpdQgfWXB9-rMtIq-5" target="fn5OUpdQgfWXB9-rMtIq-6">
          <mxGeometry relative="1" as="geometry">
            <mxPoint x="410" y="100" as="sourcePoint" />
          </mxGeometry>
        </mxCell>
        <mxCell id="fn5OUpdQgfWXB9-rMtIq-28" value="" style="edgeStyle=orthogonalEdgeStyle;rounded=0;orthogonalLoop=1;jettySize=auto;html=1;" edge="1" parent="1" source="fn5OUpdQgfWXB9-rMtIq-25" target="fn5OUpdQgfWXB9-rMtIq-27">
          <mxGeometry relative="1" as="geometry" />
        </mxCell>
        <mxCell id="fn5OUpdQgfWXB9-rMtIq-25" value="intentos ++" style="whiteSpace=wrap;html=1;" vertex="1" parent="1">
          <mxGeometry x="350" y="360" width="120" height="40" as="geometry" />
        </mxCell>
        <mxCell id="fn5OUpdQgfWXB9-rMtIq-30" value="" style="edgeStyle=orthogonalEdgeStyle;rounded=0;orthogonalLoop=1;jettySize=auto;html=1;" edge="1" parent="1" source="fn5OUpdQgfWXB9-rMtIq-27" target="fn5OUpdQgfWXB9-rMtIq-29">
          <mxGeometry relative="1" as="geometry" />
        </mxCell>
        <mxCell id="fn5OUpdQgfWXB9-rMtIq-39" value="SI" style="edgeLabel;html=1;align=center;verticalAlign=middle;resizable=0;points=[];" vertex="1" connectable="0" parent="fn5OUpdQgfWXB9-rMtIq-30">
          <mxGeometry x="-0.0513" y="1" relative="1" as="geometry">
            <mxPoint as="offset" />
          </mxGeometry>
        </mxCell>
        <mxCell id="fn5OUpdQgfWXB9-rMtIq-34" style="edgeStyle=orthogonalEdgeStyle;rounded=0;orthogonalLoop=1;jettySize=auto;html=1;exitX=0;exitY=0.5;exitDx=0;exitDy=0;entryX=0;entryY=0.5;entryDx=0;entryDy=0;" edge="1" parent="1" source="fn5OUpdQgfWXB9-rMtIq-27" target="fn5OUpdQgfWXB9-rMtIq-16">
          <mxGeometry relative="1" as="geometry" />
        </mxCell>
        <mxCell id="fn5OUpdQgfWXB9-rMtIq-40" value="NO" style="edgeLabel;html=1;align=center;verticalAlign=middle;resizable=0;points=[];" vertex="1" connectable="0" parent="fn5OUpdQgfWXB9-rMtIq-34">
          <mxGeometry x="-0.9104" y="-2" relative="1" as="geometry">
            <mxPoint as="offset" />
          </mxGeometry>
        </mxCell>
        <mxCell id="fn5OUpdQgfWXB9-rMtIq-27" value="numeroOculto == numeroPregunta" style="rhombus;whiteSpace=wrap;html=1;" vertex="1" parent="1">
          <mxGeometry x="352" y="420" width="116" height="130" as="geometry" />
        </mxCell>
        <mxCell id="fn5OUpdQgfWXB9-rMtIq-32" value="" style="edgeStyle=orthogonalEdgeStyle;rounded=0;orthogonalLoop=1;jettySize=auto;html=1;entryX=0.5;entryY=0;entryDx=0;entryDy=0;" edge="1" parent="1" source="fn5OUpdQgfWXB9-rMtIq-29" target="fn5OUpdQgfWXB9-rMtIq-33">
          <mxGeometry relative="1" as="geometry">
            <mxPoint x="606" y="600" as="targetPoint" />
          </mxGeometry>
        </mxCell>
        <mxCell id="fn5OUpdQgfWXB9-rMtIq-29" value="&quot;Felicidades as ganado&quot;&lt;br&gt;intentos&lt;br&gt;numeroOculto" style="shape=document;whiteSpace=wrap;html=1;boundedLbl=1;" vertex="1" parent="1">
          <mxGeometry x="546" y="445" width="120" height="80" as="geometry" />
        </mxCell>
        <mxCell id="fn5OUpdQgfWXB9-rMtIq-33" value="Fin (Para)" style="shape=loopLimit;whiteSpace=wrap;html=1;" vertex="1" parent="1">
          <mxGeometry x="556" y="540" width="100" height="40" as="geometry" />
        </mxCell>
        <mxCell id="fn5OUpdQgfWXB9-rMtIq-35" value="" style="edgeStyle=orthogonalEdgeStyle;rounded=0;orthogonalLoop=1;jettySize=auto;html=1;" edge="1" parent="1" target="fn5OUpdQgfWXB9-rMtIq-36">
          <mxGeometry relative="1" as="geometry">
            <mxPoint x="410" y="280" as="sourcePoint" />
          </mxGeometry>
        </mxCell>
        <mxCell id="fn5OUpdQgfWXB9-rMtIq-37" value="" style="edgeStyle=orthogonalEdgeStyle;rounded=0;orthogonalLoop=1;jettySize=auto;html=1;" edge="1" parent="1" source="fn5OUpdQgfWXB9-rMtIq-36" target="fn5OUpdQgfWXB9-rMtIq-25">
          <mxGeometry relative="1" as="geometry" />
        </mxCell>
        <mxCell id="fn5OUpdQgfWXB9-rMtIq-36" value="numeroPregunta" style="shape=parallelogram;perimeter=parallelogramPerimeter;whiteSpace=wrap;html=1;fixedSize=1;rounded=1;" vertex="1" parent="1">
          <mxGeometry x="350" y="300" width="120" height="40" as="geometry" />
        </mxCell>
      </root>
    </mxGraphModel>
  </diagram>
</mxfile>
